<svg
  xmlns="http://www.w3.org/2000/svg"
  preserveAspectRatio="xMidYMid"
  version="1.0"
  viewBox="0 0 400 400"
>
  <defs>
    <linearGradient id="gradient" x1="0%" y1="0%" x2="100%" y2="100%">
      <stop offset="0%" stop-color="#724ff9" />
      <stop offset="100%" stop-color="#32c8ea" />
    </linearGradient>
  </defs>
  <path
    d="M68.39 47.483C55.18 51.048 44.934 62.033 41.34 76.39c-.989 3.855-1.259 14.839-1.259 49.719 0 24.666.36 47.31.9 50.393 1.886 12.526 9.705 23.703 20.22 29.099 4.404 2.216 6.92 2.794 13.751 3.18 6.112.288 8.268.77 8.268 1.734 0 3.757 4.135 12.43 8.269 17.247 4.943 5.781 9.796 9.25 15.728 11.08l3.684 1.253.36 16.958c.27 16.092.45 17.248 2.696 21.776 3.056 6.167 8.089 11.37 13.75 14.164 3.955 1.927 6.292 2.216 20.312 2.506l15.818.385 1.617 4.818c2.157 6.359 9.168 14.453 15.549 17.825 4.583 2.409 6.11 2.698 14.11 2.698 8.088 0 9.436-.29 13.75-2.698 7.01-3.95 11.504-8.864 14.74-15.995 2.606-5.685 2.965-7.226 2.965-15.03 0-7.42-.36-9.54-2.426-14.165-3.056-7.034-9.257-13.682-15.818-16.958-4.404-2.216-6.291-2.602-13.211-2.602s-8.808.386-13.212 2.602c-8.088 4.047-15.638 13.297-17.705 21.872l-.629 2.313-15.188-.193c-16.627-.193-17.436-.385-21.48-6.263-1.708-2.409-1.887-4.24-2.157-18.307l-.27-15.61 3.865-1.252c10.335-3.276 20.221-13.875 23.277-24.956l1.078-4.046h25.255l25.254.096 26.513 27.653 27.707 29.788-.2.67c-2.372 7.988-.635 17.141 1.432 21.959 11.863 27.171 46.285 27.171 58.058 0 1.977-4.529 2.825-6.414 2.825-13.256 0-7.322-.668-9.291-3.274-14.976-3.505-7.612-9.167-13.49-16.267-17.054-7.37-3.758-17.256-3.662-24.895.096-2.966 1.542-6.65 3.95-8.089 5.492l-2.696 2.89-20.221-20.812c-11.145-11.37-22.379-23.028-25.075-25.919l-4.853-5.107 4.404-5.492c7.639-9.442 6.65-9.153 32.803-9.153H274.2l1.708 5.01c2.336 7.13 10.874 16.091 17.884 18.885 10.695 4.336 23.907 2.12 31.905-5.203 13.122-12.044 15.548-31.026 5.842-46.442-6.111-9.636-15.009-14.742-25.883-14.742-8.538-.097-15.189 2.698-21.48 8.864-4.584 4.433-11.023 15.19-11.023 18.466 0 .964-4.705.612-23.848.901l-24.734.503-3.897 1.651c-2.516 1.446-8.127 6.807-12.351 11.529l-7.37 8.286h-24.355c-22.289 0-24.266-.096-24.715-1.734-3.865-12.526-14.11-23.318-24.356-25.727l-2.966-.674v-15.031c0-17.055.809-20.138 6.201-23.993 3.056-2.216 3.146-2.216 38.197-2.216h35.14l1.528 4.625c4.583 13.586 16.177 22.258 30.107 22.354 8.628 0 15.01-2.601 21.21-8.671 14.02-13.683 14.65-35.555 1.528-50.104-12.941-14.164-33.792-13.49-46.644 1.541-2.606 3.084-5.213 7.323-6.111 10.021l-1.528 4.721-36.04.29c-34.51.289-36.128.385-40.083 2.312-6.201 3.083-11.504 8.768-14.47 15.32-2.426 5.685-2.516 6.167-2.516 22.354 0 15.224-.18 16.67-1.528 16.67-.898 0-4.134 1.252-7.28 2.89-8.807 4.432-15.368 12.815-18.513 23.51-.54 1.638-1.348 1.735-7.73 1.35-14.245-.808-21.563-12.474-21.205-20.196l.085-.134-.27-43.939c-.179-43.455-.09-49.236 1.259-52.994 1.887-5.3 5.932-10.214 10.605-12.911l3.685-2.12 128.519-.29c117.554-.192 128.878-.096 132.473 1.35 5.392 2.216 9.886 6.744 12.312 12.43l2.157 4.817v120.442c0 115.239-.09 120.635-1.707 124.296-2.067 4.818-6.561 9.443-11.324 11.755-3.326 1.638-7.73 1.735-54.823 2.024-28.13.096-52.396.192-53.744.192-3.146 0-6.92 3.95-6.92 7.227 0 1.349 5.38 6.634 6.565 7.019l.938.304 52.442-.29 55.542-.288 5.212-2.216c7.28-3.18 15.099-11.178 18.784-19.271l2.966-6.456.27-120.442c.179-106.952.09-121.213-1.17-127.38-2.605-12.622-11.233-23.413-22.647-28.424l-5.213-2.216-128.968-.193c-100.478-.096-129.957.097-133.462 1.06zm175.523 52.513c7.1 3.95 10.425 10.214 9.886 18.885-.45 7.998-3.415 12.815-9.796 16.284-5.123 2.698-8.359 3.083-13.661 1.445-4.134-1.252-9.796-6.455-11.773-10.888-2.787-6.359-1.259-16.283 3.325-21.68 4.853-5.684 15.458-7.611 22.019-4.046zm68.303 60.414c6.83 3.083 11.774 10.695 11.864 18.307 0 5.588-3.865 13.393-8.269 16.573-4.943 3.469-13.3 4.143-18.334 1.349-6.74-3.758-10.245-9.828-10.245-18.018 0-8.48 4.403-15.513 11.683-18.693 3.415-1.445 9.527-1.253 13.301.482zm-187.385 21.005c8.717 3.372 14.11 11.659 14.11 21.776 0 9.828-4.134 16.862-12.133 20.812-14.2 7.13-30.467-3.95-30.377-20.716.09-2.987.629-6.937 1.348-8.768 4.404-11.273 16.537-17.055 27.052-13.104zm171.388 77.66c7.19 3.951 11.234 13.587 9.077 21.873-2.426 9.828-9.526 15.32-18.963 14.55-6.92-.482-11.684-3.951-14.83-10.696-3.954-8.479-2.246-17.729 4.405-23.414 6.2-5.395 13.211-6.166 20.311-2.312zm-95.625 10.118c10.335 3.276 15.728 15.706 11.234 26.015-1.977 4.53-6.65 9.54-10.245 10.985-5.932 2.409-14.74.578-19.413-4.047-5.392-5.3-7.01-15.898-3.595-23.51 1.977-4.433 5.482-7.612 10.605-9.54 4.224-1.637 6.022-1.637 11.414.097z"
    fill="url(#gradient)"
  />
</svg>
